<svg xmlns="http://www.w3.org/2000/svg" width="983" height="1164" baseProfile="full" viewBox="0 0 983 1164"><g stroke="#33322E" stroke-linecap="round" stroke-linejoin="round" stroke-width="3" font-family="Helvetica" font-size="16" font-weight="bold"><path fill="transparent" stroke="none" d="M0 0h983v1164H0z"/><g fill="#33322E" font-weight="normal"><path fill="none" d="m574.8 86-.05 20v20h0v20h0v13.333l.05-.033"/><path d="m569.4 152.7 5.4 6.6 5.3-6.6-5.3 13.3Z"/><path fill="none" d="m519 234-32.75 20v20h0v20h0l12.163 14.843-.013-.043"/><path d="m490.1 307.1 8.3 1.7-.1-8.5 4.3 13.7Z"/><path fill="none" d="M442 359.8 125 402v20h0v20h0v13.333-.033"/><path d="m119.7 448.7 5.3 6.6 5.3-6.6L125 462Z"/><path fill="none" stroke-dasharray="6 6" d="m558.4 314 16.35-20v-20h0v-20h0v-13.333l.05.033"/><path d="m580.1 247.3-5.3-6.6-5.4 6.6 5.4-13.3Z"/><path fill="none" d="M214 518.6 338 550v20h0v20h0l12.085 14.832.015-.032"/><path d="m341.7 603 8.4 1.8-.1-8.5 4.3 13.7Z"/><path fill="none" stroke-dasharray="6 6" d="M125 530v40h0v20h0v54h0v54h0v20h0v20h0v66h0v66h0v20h0v20h0l18.777 15.72.023-.02"/><path d="m135.2 925.5 8.6.2-1.7-8.3 6.8 12.6Z"/><path fill="none" d="M382 678v40h0v20h0v13.333-.033"/><path d="m376.7 744.7 5.3 6.6 5.3-6.6L382 758Z"/><path fill="none" d="M294 832.2 176.25 870v20h0v20h0l3.319 13.525.031-.025"/><path d="m172.8 918.3 6.8 5.2 3.6-7.7-2 14.2Z"/><path fill="none" d="M382 850v40h0v20h0l34.217 17.03-.017-.03"/><path d="m407.9 928.8 8.3-1.8-3.6-7.7 9.6 10.7Z"/><path fill="none" d="M470 822.3 699 870v20h0v20h0l16.106 15.394-.006.006"/><path d="m706.6 924.6 8.5.8-1.1-8.5 5.9 13.1Z"/><path fill="none" d="M470 816.4 851.25 870v20h0v20h0l15.86 15.362-.01.038"/><path d="m858.6 924.6 8.5.8-1.1-8.5 5.9 13.1Z"/><path fill="none" stroke-dasharray="6 6" d="m394.6 610 7.4-20v-20h0v-20h0v-54h0v-54h0v-20h0v-20h0v-54h0v-54h0v-20h0v-20h0l96.387-30.13.013.03"/><path d="m493.6 230.9 4.8-7-8-3.1 14.4 1.1Z"/><path fill="none" stroke-dasharray="6 6" d="m230.1 930 23.9-20v-20h0v-20h0v-66h0v-66h0v-20h0v-20h0v-54h0v-54h0v-20h0v-20h0v-54h0v-54h0v-20h0v-20h0v-54h0v-54h0v-20h0v-20h0l244.176-41.108.024.008"/><path d="m492.5 219.3 5.7-6.4-7.5-4.2 14.1 3.1Z"/><path fill="none" d="M189.5 998v40h0v20h0v13.333-.033"/><path d="m184.2 1064.7 5.3 6.6 5.3-6.6-5.3 13.3Z"/><path fill="none" stroke-dasharray="6 6" d="M567.5 939.3 659 910v-20h0v-20h0v-66h0v-66h0v-20h0v-20h0v-54h0v-54h0v-20h0v-20h0v-54h0v-54h0v-20h0v-20h0v-54h0v-54h0v-20h0v-20h0l-25.591-16.403-.009.003"/><path d="m641.9 236.7-8.5.9 2.7 8.1-8.3-11.7Z"/><path fill="none" d="M490.5 998v40h0v20h0v13.333-.033"/><path d="m485.2 1064.7 5.3 6.6 5.3-6.6-5.3 13.3Z"/><path fill="none" stroke-dasharray="6 6" d="m790.6 930 20.65-20v-20h0v-20h0v-66h0v-66h0v-20h0v-20h0v-54h0v-54h0v-20h0v-20h0v-54h0v-54h0v-20h0v-20h0v-54h0v-54h0v-20h0v-20h0l-160-36.533-.05.033"/><path d="m658.9 213.8-7.7 3.7 5.4 6.7-11.8-8.2Z"/><path fill="none" d="M755.5 998v40h0v20h0v13.333-.033"/><path d="m750.2 1064.7 5.3 6.6 5.3-6.6-5.3 13.3Z"/><path fill="none" d="M907 930v-40h0v-20h0v-66h0v-66h0v-20h0v-20h0v-54h0v-54h0v-20h0v-20h0v-54h0v-54h0v-20h0v-20h0l-281.4-40.36v-.04"/><path d="m633 357.3-7.4 4.3 5.8 6.3-12.4-7.2Z"/><path fill="none" stroke-dasharray="6 6" d="m932.2 930 14.8-20v-20h0v-20h0v-66h0v-66h0v-20h0v-20h0v-54h0v-54h0v-20h0v-20h0v-54h0v-54h0v-20h0v-20h0v-54h0v-54h0v-20h0v-20h0l-295.652-42.888-.048-.012"/><path d="m658.7 206.8-7.4 4.3 5.9 6.2-12.4-7.1Z"/><circle cx="538.8" cy="25" r="12" stroke="none" data-name="new_round-start" transform="translate(36 36)"/><g data-name="new_round"><path fill="#eee8d5" d="M514.8 176h120v48h-120z" data-name="new_round"/><text x="44" y="14.1" stroke="none" data-compartment="0" data-name="new_round" font-weight="bold" text-anchor="middle" transform="translate(530.75 192)">new_round</text></g><g data-name="player_decision"><path fill="#eee8d5" d="M452 324h157v48H452z" data-name="player_decision"/><text x="62.5" y="14.1" stroke="none" data-compartment="0" data-name="player_decision" font-weight="bold" text-anchor="middle" transform="translate(468 340)">player_decision</text></g><g data-name="dealer_decision"><path fill="#eee8d5" d="M46 472h158v48H46z" data-name="dealer_decision"/><text x="63" y="14.1" stroke="none" data-compartment="0" data-name="dealer_decision" font-weight="bold" text-anchor="middle" transform="translate(62 488)">dealer_decision</text></g><g data-name="tally"><path fill="#eee8d5" d="M350 620h64v48h-64z" data-name="tally"/><text x="16" y="14.1" stroke="none" data-compartment="0" data-name="tally" font-weight="bold" text-anchor="middle" transform="translate(366 636)">tally</text></g><g data-name="dealer_busts"><path fill="#eee8d5" d="M122 940h135v48H122z" data-name="dealer_busts"/><text x="51.5" y="14.1" stroke="none" data-compartment="0" data-name="dealer_busts" font-weight="bold" text-anchor="middle" transform="translate(138 956)">dealer_busts</text></g><g data-name="tally-next"><path fill="#eee8d5" d="m382 768 78 36-78 36-78-36Z" data-name="tally-next"/><text x="36" y="14.1" stroke="none" data-compartment="0" data-name="tally-next" text-anchor="middle" transform="translate(346 796)">tally-next</text></g><g data-name="player_busts"><path fill="#eee8d5" d="M423.5 940h134v48h-134z" data-name="player_busts"/><text x="51" y="14.1" stroke="none" data-compartment="0" data-name="player_busts" font-weight="bold" text-anchor="middle" transform="translate(439.5 956)">player_busts</text></g><g data-name="higher_hand"><path fill="#eee8d5" d="M689.5 940h132v48h-132z" data-name="higher_hand"/><text x="50" y="14.1" stroke="none" data-compartment="0" data-name="higher_hand" font-weight="bold" text-anchor="middle" transform="translate(705.5 956)">higher_hand</text></g><g data-name="tie"><path fill="#eee8d5" d="M881.5 940h51v48h-51z" data-name="tie"/><text x="9.5" y="14.1" stroke="none" data-compartment="0" data-name="tie" font-weight="bold" text-anchor="middle" transform="translate(897.5 956)">tie</text></g><g data-name="dealer_busts-end" transform="translate(36 36)"><circle cx="153.5" cy="1067" r="10" data-name="dealer_busts-end"/><circle cx="153.5" cy="1067" r="2" stroke="none" data-name="dealer_busts-end"/></g><g data-name="player_busts-end" transform="translate(36 36)"><circle cx="454.5" cy="1067" r="10" data-name="player_busts-end"/><circle cx="454.5" cy="1067" r="2" stroke="none" data-name="player_busts-end"/></g><g data-name="higher_hand-end" transform="translate(36 36)"><circle cx="719.5" cy="1067" r="10" data-name="higher_hand-end"/><circle cx="719.5" cy="1067" r="2" stroke="none" data-name="higher_hand-end"/></g></g></g></svg>